<?xml version="1.0" encoding="UTF-8"?><svg id="a" xmlns="http://www.w3.org/2000/svg" viewBox="0 0 347 40"><defs><style>.b{fill:#bc0000;}</style></defs><path d="M19.574.319l-6.918,20.062h-.107L5.575.319H.359v37.892h5.428V15.165h.107l5.321,16.285h2.717l5.373-16.285h.107v23.046h5.428V.319h-5.268Z"/><path d="M43.177,12.378L40.486.319h-4.52l-7.907,35.393-.557,2.499h5.429l1.597-8.145h7.4l1.597,8.145h5.428l-5.774-25.834ZM35.484,24.957l2.662-13.731h.107l1.744,9.002.917,4.729h-5.43Z"/><path d="M69.172,11.228h-5.428v-1.224c0-1.242-.294-2.315-.879-3.219s-1.571-1.357-2.953-1.357c-.746,0-1.349.142-1.809.426-.461.284-.834.639-1.119,1.065-.284.461-.478.986-.585,1.571-.107.585-.161,1.198-.161,1.837,0,.746.026,1.366.079,1.862.054.498.186.941.399,1.331.212.391.522.727.932,1.012.408.284.965.568,1.676.851l4.151,1.65c1.205.462,2.182,1.002,2.927,1.622.746.622,1.331,1.34,1.755,2.156.389.851.655,1.818.799,2.9.142,1.082.212,2.315.212,3.699,0,1.597-.159,3.079-.478,4.445-.319,1.366-.834,2.529-1.543,3.487-.746.993-1.722,1.774-2.928,2.342-1.207.567-2.68.851-4.417.851-1.312,0-2.536-.231-3.671-.692-1.135-.462-2.112-1.1-2.927-1.916-.816-.816-1.464-1.765-1.942-2.846-.478-1.082-.718-2.263-.718-3.538v-2.023h5.429v1.704c0,.993.293,1.89.879,2.687.585.797,1.571,1.198,2.953,1.198.923,0,1.641-.133,2.156-.399.513-.266.914-.646,1.198-1.144.284-.497.452-1.091.506-1.783.053-.692.079-1.464.079-2.315,0-.993-.035-1.809-.107-2.447-.072-.639-.212-1.152-.426-1.543-.249-.389-.578-.709-.986-.958-.408-.247-.949-.513-1.622-.797l-3.885-1.597c-2.342-.958-3.911-2.226-4.71-3.804-.799-1.578-1.198-3.557-1.198-5.934,0-1.419.196-2.767.585-4.044s.975-2.377,1.755-3.3c.746-.923,1.694-1.658,2.848-2.209C57.15.282,58.527.007,60.122.007c1.347,0,2.58.249,3.699.746,1.117.497,2.084,1.154,2.9,1.969,1.632,1.704,2.448,3.655,2.448,5.855v2.662l.004-.011Z"/><path d="M90.778,11.228h-5.429v-1.224c0-1.242-.293-2.315-.879-3.219-.585-.904-1.571-1.357-2.953-1.357-.746,0-1.349.142-1.809.426-.461.284-.834.639-1.118,1.065-.284.461-.478.986-.585,1.571-.107.585-.161,1.198-.161,1.837,0,.746.026,1.366.079,1.862.054.498.187.941.399,1.331.212.391.522.727.932,1.012.408.284.965.568,1.676.851l4.151,1.65c1.205.462,2.182,1.002,2.927,1.622.746.622,1.331,1.34,1.755,2.156.39.851.655,1.818.799,2.9.142,1.082.212,2.315.212,3.699,0,1.597-.159,3.079-.478,4.445-.319,1.366-.834,2.529-1.543,3.487-.746.993-1.722,1.774-2.927,2.342-1.207.567-2.68.851-4.417.851-1.312,0-2.536-.231-3.671-.692-1.135-.462-2.112-1.1-2.927-1.916-.816-.816-1.464-1.765-1.942-2.846-.478-1.082-.718-2.263-.718-3.538v-2.023h5.428v1.704c0,.993.294,1.89.879,2.687.585.797,1.571,1.198,2.953,1.198.923,0,1.641-.133,2.156-.399.513-.266.914-.646,1.198-1.144.284-.497.452-1.091.506-1.783.054-.692.079-1.464.079-2.315,0-.993-.035-1.809-.107-2.447-.072-.639-.212-1.152-.426-1.543-.249-.389-.578-.709-.986-.958-.408-.247-.949-.513-1.622-.797l-3.885-1.597c-2.342-.958-3.911-2.226-4.71-3.804-.799-1.578-1.198-3.557-1.198-5.934,0-1.419.196-2.767.585-4.044.389-1.277.975-2.377,1.755-3.3.746-.923,1.694-1.658,2.848-2.209,1.152-.55,2.529-.825,4.123-.825,1.347,0,2.58.249,3.699.746,1.117.497,2.084,1.154,2.9,1.969,1.632,1.704,2.448,3.655,2.448,5.855v2.662l.004-.011Z"/><path d="M121.965,27.408v2.342c0,1.17-.222,2.28-.665,3.326-.445,1.047-1.055,1.979-1.836,2.794-.781.816-1.695,1.464-2.741,1.942-1.047.48-2.175.718-3.38.718-1.03,0-2.075-.142-3.14-.426-1.065-.284-2.023-.781-2.873-1.49-.851-.709-1.553-1.622-2.103-2.741-.55-1.118-.825-2.545-.825-4.284V8.727c0-1.242.212-2.396.639-3.459.426-1.063,1.028-1.986,1.809-2.767.779-.781,1.711-1.392,2.794-1.837,1.082-.443,2.28-.664,3.592-.664,2.555,0,4.631.834,6.226,2.501.781.816,1.392,1.783,1.836,2.9.443,1.119.665,2.333.665,3.645v2.128h-5.429v-1.809c0-1.065-.302-1.986-.904-2.767-.604-.779-1.419-1.17-2.447-1.17-1.35,0-2.245.417-2.688,1.251-.445.834-.664,1.89-.664,3.167v19.371c0,1.1.24,2.023.718,2.767.478.746,1.338,1.118,2.58,1.118.354,0,.736-.061,1.144-.186.408-.124.789-.329,1.145-.613.319-.284.585-.674.799-1.17.212-.497.319-1.119.319-1.862v-1.862h5.429v-.002Z"/><path d="M126.382,38.211V.319h8.141c1.49,0,2.802.196,3.939.585,1.136.391,2.164,1.083,3.087,2.077.922.993,1.561,2.156,1.915,3.487.355,1.331.532,3.132.532,5.401,0,1.704-.098,3.14-.293,4.31-.196,1.17-.613,2.27-1.252,3.3-.746,1.242-1.739,2.209-2.981,2.9-1.242.692-2.874,1.037-4.897,1.037h-2.767v14.796h-5.428.004ZM131.81,5.428v12.88h2.608c1.1,0,1.951-.159,2.555-.478.603-.319,1.046-.762,1.331-1.331.284-.532.452-1.189.505-1.97.054-.779.08-1.65.08-2.608,0-.886-.019-1.729-.054-2.529-.035-.799-.195-1.499-.478-2.102-.284-.604-.71-1.065-1.277-1.384-.569-.319-1.384-.48-2.448-.48h-2.82l-.002.002Z"/><path d="M148.042,38.211V.319h8.729c6.386,0,9.579,3.708,9.579,11.123,0,2.235-.345,4.133-1.037,5.694-.692,1.562-1.907,2.82-3.646,3.778l5.855,17.297h-5.747l-5.056-16.178h-3.247v16.178h-5.43ZM153.47,5.428v11.815h3.087c.957,0,1.72-.133,2.288-.399.567-.266,1.012-.646,1.331-1.144.284-.497.478-1.109.585-1.837.107-.727.161-1.569.161-2.529s-.054-1.8-.161-2.529c-.107-.727-.319-1.357-.638-1.89-.674-.993-1.951-1.49-3.832-1.49h-2.821v.002Z"/><path class="b" d="M19.574.319h5.268v37.892h-5.428V15.165h-.107l-5.373,16.285h-2.717L5.894,15.165h-.107v23.046H.359V.319h5.216l6.975,20.06h.105L19.574.319Z"/><path class="b" d="M43.177,12.378c-.847,2.723-1.916,5.347-3.182,7.852l-1.744-9.002h-.107l-2.662,13.731h1.809c-2.575,4-5.687,7.623-9.235,10.755L35.966.319h4.52l2.691,12.058Z"/><path d="M198.803,1.449h1.548l3.496,7.68,3.496-7.68h1.569v14.65h-1.443V4.358l-3.599,7.806h-.063l-3.579-7.785v11.721h-1.423V1.449h-.002Z"/><path d="M210.963,12.919v-.146c0-2.176,1.297-3.516,3.348-3.516.901,0,1.591.188,2.239.419v-.941c0-1.591-.858-2.449-2.302-2.449-.878,0-1.737.356-2.239.69l-.461-1.192c.838-.46,1.8-.796,2.866-.796s1.948.314,2.575.941c.585.565.942,1.528.942,2.721v7.451h-1.403v-1.528c-.522,1.047-1.381,1.737-2.658,1.737-1.591,0-2.909-1.34-2.909-3.391h.002ZM216.55,12.563v-1.757c-.585-.251-1.255-.419-2.01-.419-1.403,0-2.176.941-2.176,2.344v.105c0,1.36.733,2.281,1.862,2.281,1.34.02,2.324-1.152,2.324-2.553v-.002Z"/><path d="M219.208,14.824l.795-1.089c.838.858,1.695,1.277,2.553,1.277,1.067,0,1.8-.712,1.8-1.674v-.042c0-.796-.482-1.381-2.031-2.261-1.779-1.004-2.574-1.82-2.574-3.223v-.042c0-1.674,1.297-2.804,3.077-2.804,1.151,0,2.155.482,2.908,1.13l-.753,1.089c-.627-.585-1.34-.964-2.198-.964-1.004,0-1.674.628-1.674,1.443v.042c0,.796.522,1.318,2.008,2.176,1.946,1.13,2.595,1.988,2.595,3.348v.02c0,1.842-1.423,3.014-3.182,3.014-1.089,0-2.239-.439-3.328-1.443l.004.002Z"/><path d="M226.429,14.824l.795-1.089c.838.858,1.695,1.277,2.553,1.277,1.067,0,1.8-.712,1.8-1.674v-.042c0-.796-.482-1.381-2.031-2.261-1.779-1.004-2.575-1.82-2.575-3.223v-.042c0-1.674,1.298-2.804,3.077-2.804,1.152,0,2.156.482,2.909,1.13l-.753,1.089c-.627-.585-1.34-.964-2.198-.964-1.004,0-1.674.628-1.674,1.443v.042c0,.796.522,1.318,2.008,2.176,1.945,1.13,2.595,1.988,2.595,3.348v.02c0,1.842-1.423,3.014-3.182,3.014-1.089,0-2.239-.439-3.328-1.443l.004.002Z"/><path d="M238.609,8.9v-.231c0-4.731,2.344-7.367,5.296-7.367,1.317,0,2.281.502,3.054,1.215l-.816,1.152c-.627-.565-1.38-.984-2.281-.984-2.093,0-3.767,2.302-3.767,6.006v.146c0,3.81,1.674,6.028,3.747,6.028.9,0,1.694-.439,2.386-1.089l.796,1.13c-.858.796-1.946,1.34-3.265,1.34-2.952,0-5.148-2.575-5.148-7.346h-.002Z"/><path d="M248.174,10.72v-.231c0-3.308,1.694-5.567,3.976-5.567s3.935,2.239,3.935,5.567v.231c0,3.328-1.674,5.587-3.956,5.587s-3.955-2.239-3.955-5.587ZM254.662,10.7v-.168c0-2.575-1.089-4.332-2.512-4.332s-2.553,1.737-2.553,4.332v.168c0,2.575,1.109,4.332,2.532,4.332s2.533-1.757,2.533-4.332Z"/><path d="M258.115,5.111h1.403v1.654c.482-.984,1.298-1.842,2.678-1.842,1.757,0,2.909,1.255,2.909,3.559v7.618h-1.403v-7.178c0-1.862-.732-2.741-1.988-2.741s-2.198,1.089-2.198,2.763v7.158h-1.403V5.113l.002-.002Z"/><path d="M266.403,14.824l.795-1.089c.838.858,1.695,1.277,2.553,1.277,1.067,0,1.8-.712,1.8-1.674v-.042c0-.796-.482-1.381-2.031-2.261-1.779-1.004-2.575-1.82-2.575-3.223v-.042c0-1.674,1.298-2.804,3.077-2.804,1.152,0,2.156.482,2.909,1.13l-.753,1.089c-.627-.585-1.34-.964-2.198-.964-1.004,0-1.674.628-1.674,1.443v.042c0,.796.522,1.318,2.008,2.176,1.947,1.13,2.595,1.988,2.595,3.348v.02c0,1.842-1.423,3.014-3.182,3.014-1.089,0-2.239-.439-3.328-1.443l.004.002Z"/><path d="M274.292,10.72v-.231c0-3.308,1.694-5.567,3.976-5.567s3.935,2.239,3.935,5.567v.231c0,3.328-1.674,5.587-3.956,5.587s-3.955-2.239-3.955-5.587ZM280.78,10.7v-.168c0-2.575-1.089-4.332-2.512-4.332s-2.553,1.737-2.553,4.332v.168c0,2.575,1.109,4.332,2.532,4.332s2.533-1.757,2.533-4.332Z"/><path d="M284.233,5.111h1.403v1.947c.502-1.235,1.506-2.156,2.992-2.073v1.549h-.063c-1.654,0-2.929,1.109-2.929,3.37v6.194h-1.403V5.111Z"/><path d="M290.658,13.923v-7.577h-1.109v-1.235h1.109v-3.097h1.423v3.097h2.176v1.235h-2.176v7.304c0,.984.482,1.298,1.255,1.298.314,0,.648-.083.942-.209v1.215c-.356.168-.816.271-1.278.271-1.34,0-2.344-.607-2.344-2.302h.002Z"/><path d="M296.268,1.24h1.528v1.757h-1.528v-1.757ZM296.33,5.111h1.403v10.988h-1.403V5.111Z"/><path d="M300.221,12.731v-7.618h1.403v7.178c0,1.862.733,2.741,1.988,2.741s2.198-1.089,2.198-2.783v-7.138h1.403v10.988h-1.403v-1.654c-.482.984-1.297,1.842-2.678,1.842-1.757,0-2.909-1.255-2.909-3.559l-.002.002Z"/><path d="M309.723,5.111h1.403v1.654c.482-1.026,1.277-1.842,2.575-1.842,1.109,0,2.03.607,2.49,1.8.544-.921,1.36-1.8,2.804-1.8,1.694,0,2.888,1.215,2.888,3.559v7.618h-1.402v-7.178c0-1.862-.691-2.741-1.885-2.741s-2.093,1.026-2.093,2.783v7.138h-1.403v-7.178c0-1.862-.69-2.741-1.884-2.741s-2.094,1.109-2.094,2.783v7.138h-1.402V5.115l.003-.004Z"/><path d="M327.89,10.72v-.231c0-3.308,1.694-5.567,3.975-5.567s3.936,2.239,3.936,5.567v.231c0,3.328-1.675,5.587-3.956,5.587s-3.955-2.239-3.955-5.587ZM334.377,10.7v-.168c0-2.575-1.089-4.332-2.512-4.332s-2.552,1.737-2.552,4.332v.168c0,2.575,1.109,4.332,2.532,4.332s2.532-1.757,2.532-4.332Z"/><path d="M337.831,5.111h1.403v1.654c.481-.984,1.297-1.842,2.678-1.842,1.757,0,2.909,1.255,2.909,3.559v7.618h-1.403v-7.178c0-1.862-.733-2.741-1.988-2.741s-2.198,1.089-2.198,2.763v7.158h-1.403V5.113l.002-.002Z"/><path d="M198.803,22.378h3.202c2.889,0,4.751,1.737,4.751,4.668v.042c0,3.014-1.988,4.731-4.834,4.771h-1.654v5.17h-1.465v-14.652ZM201.922,30.518c2.114,0,3.348-1.318,3.348-3.411v-.02c0-2.176-1.255-3.348-3.327-3.348h-1.675v6.781h1.654v-.002Z"/><path d="M207.823,33.846v-.146c0-2.176,1.298-3.516,3.348-3.516.901,0,1.592.188,2.239.419v-.941c0-1.591-.858-2.449-2.301-2.449-.879,0-1.737.356-2.239.69l-.462-1.192c.838-.46,1.8-.796,2.867-.796s1.947.314,2.575.941c.585.565.941,1.528.941,2.721v7.451h-1.403v-1.528c-.522,1.047-1.38,1.737-2.658,1.737-1.591,0-2.909-1.34-2.909-3.391h.002ZM213.412,33.492v-1.757c-.585-.251-1.255-.419-2.01-.419-1.403,0-2.176.941-2.176,2.344v.105c0,1.36.733,2.281,1.862,2.281,1.34.02,2.324-1.152,2.324-2.553v-.002Z"/><path d="M217.43,34.852v-7.577h-1.109v-1.235h1.109v-3.097h1.424v3.097h2.176v1.235h-2.176v7.304c0,.984.481,1.298,1.255,1.298.313,0,.648-.083.941-.209v1.215c-.356.168-.816.271-1.277.271-1.34,0-2.344-.607-2.344-2.302h0Z"/><path d="M222.997,22.085h1.403v5.609c.482-.984,1.298-1.842,2.678-1.842,1.758,0,2.909,1.255,2.909,3.559v7.618h-1.402v-7.178c0-1.862-.733-2.741-1.988-2.741s-2.199,1.089-2.199,2.763v7.158h-1.402v-14.945Z"/><path d="M231.89,31.65v-.231c0-3.308,1.695-5.567,3.976-5.567s3.935,2.239,3.935,5.567v.231c0,3.328-1.674,5.587-3.955,5.587s-3.956-2.239-3.956-5.587ZM238.38,31.628v-.168c0-2.575-1.089-4.332-2.512-4.332s-2.553,1.737-2.553,4.332v.168c0,2.575,1.11,4.332,2.533,4.332s2.532-1.757,2.532-4.332Z"/><path d="M241.769,39.184l.439-1.192c.775.439,1.863.753,2.784.753,1.694,0,2.678-.858,2.678-2.638v-1.925c-.565,1.172-1.443,2.176-2.867,2.176-1.799,0-3.411-1.737-3.411-5.19v-.125c0-3.454,1.612-5.19,3.434-5.19,1.402,0,2.301,1.004,2.846,2.113v-1.925h1.423v10.047c0,1.277-.356,2.198-1.004,2.846-.691.711-1.737,1.067-3.035,1.067-1.129,0-2.198-.271-3.285-.816h-.002ZM247.712,31.148v-.105c0-2.47-1.255-3.913-2.552-3.913s-2.344,1.381-2.344,3.935v.063c0,2.553,1.046,3.956,2.344,3.956s2.552-1.466,2.552-3.935Z"/><path d="M251.103,31.712v-.209c0-3.559,1.674-5.65,3.747-5.65,2.219,0,3.599,2.136,3.599,5.547v.733h-5.943c.105,2.49,1.381,3.83,2.909,3.83.858,0,1.528-.397,2.156-.964l.67,1.067c-.859.753-1.78,1.172-2.952,1.172-2.324,0-4.186-1.968-4.186-5.524v-.002ZM257.069,31c-.043-2.219-.859-3.893-2.219-3.893-1.255,0-2.239,1.423-2.364,3.893h4.583Z"/><path d="M260.437,26.04h1.403v1.654c.482-.984,1.298-1.842,2.678-1.842,1.757,0,2.909,1.255,2.909,3.559v7.618h-1.403v-7.178c0-1.862-.732-2.741-1.988-2.741s-2.198,1.089-2.198,2.763v7.158h-1.403v-10.988l.002-.002Z"/><path d="M274.083,22.378h3.537c1.485,0,2.7.46,3.495,1.255.733.733,1.152,1.82,1.152,3.14v.063c0,2.219-1.192,3.579-2.888,4.144l3.265,6.049h-1.674l-3.055-5.715c-.188.02-.377.02-.565.02h-1.8v5.692h-1.465v-14.65l-.002.002ZM277.18,29.996c2.595,0,3.642-1.298,3.642-3.14v-.02c0-2.051-1.277-3.097-3.308-3.097h-1.967v6.257h1.633Z"/><path d="M283.814,31.712v-.209c0-3.559,1.674-5.65,3.747-5.65,2.219,0,3.599,2.136,3.599,5.547v.733h-5.943c.105,2.49,1.381,3.83,2.909,3.83.858,0,1.528-.397,2.156-.964l.67,1.067c-.859.753-1.78,1.172-2.952,1.172-2.324,0-4.186-1.968-4.186-5.524v-.002ZM289.78,31c-.043-2.219-.859-3.893-2.219-3.893-1.255,0-2.239,1.423-2.364,3.893h4.583Z"/><path d="M292.541,33.846v-.146c0-2.176,1.298-3.516,3.348-3.516.901,0,1.591.188,2.239.419v-.941c0-1.591-.858-2.449-2.302-2.449-.878,0-1.736.356-2.238.69l-.462-1.192c.838-.46,1.8-.796,2.867-.796s1.947.314,2.574.941c.586.565.942,1.528.942,2.721v7.451h-1.403v-1.528c-.522,1.047-1.381,1.737-2.658,1.737-1.591,0-2.909-1.34-2.909-3.391h.002ZM298.13,33.492v-1.757c-.585-.251-1.255-.419-2.01-.419-1.403,0-2.176.941-2.176,2.344v.105c0,1.36.733,2.281,1.862,2.281,1.34.02,2.324-1.152,2.324-2.553v-.002Z"/><path d="M301.436,31.733v-.397c0-3.684,1.631-5.484,3.411-5.484,1.443,0,2.301,1.004,2.866,2.156v-5.923h1.403v14.943h-1.403v-2.01c-.544,1.172-1.423,2.198-2.866,2.198-1.78,0-3.411-1.757-3.411-5.484ZM307.758,31.713v-.377c0-2.638-1.215-4.207-2.575-4.207s-2.324,1.465-2.324,4.249v.294c0,2.783,1.026,4.269,2.324,4.269s2.575-1.591,2.575-4.227v-.002Z"/><path d="M311.671,22.168h1.528v1.757h-1.528v-1.757ZM311.733,26.04h1.403v10.988h-1.403v-10.988Z"/><path d="M315.752,26.04h1.402v1.654c.482-.984,1.298-1.842,2.679-1.842,1.757,0,2.909,1.255,2.909,3.559v7.618h-1.403v-7.178c0-1.862-.733-2.741-1.988-2.741s-2.198,1.089-2.198,2.763v7.158h-1.403v-10.988l.002-.002Z"/><path d="M324.646,31.712v-.209c0-3.559,1.675-5.65,3.747-5.65,2.219,0,3.6,2.136,3.6,5.547v.733h-5.944c.105,2.49,1.381,3.83,2.909,3.83.858,0,1.528-.397,2.156-.964l.67,1.067c-.858.753-1.779,1.172-2.951,1.172-2.324,0-4.187-1.968-4.187-5.524v-.002ZM330.61,31c-.042-2.219-.858-3.893-2.218-3.893-1.256,0-2.239,1.423-2.365,3.893h4.583Z"/><path d="M332.892,35.751l.795-1.089c.838.858,1.695,1.277,2.553,1.277,1.067,0,1.799-.713,1.799-1.674v-.042c0-.796-.481-1.381-2.03-2.261-1.779-1.004-2.575-1.82-2.575-3.223v-.042c0-1.674,1.298-2.804,3.077-2.804,1.152,0,2.156.482,2.909,1.13l-.753,1.089c-.628-.585-1.34-.963-2.198-.963-1.004,0-1.674.627-1.674,1.443v.042c0,.795.522,1.318,2.008,2.176,1.945,1.13,2.595,1.988,2.595,3.348v.02c0,1.842-1.423,3.014-3.182,3.014-1.089,0-2.239-.439-3.328-1.443l.004.002Z"/><path d="M340.112,35.751l.796-1.089c.838.858,1.694,1.277,2.553,1.277,1.066,0,1.799-.713,1.799-1.674v-.042c0-.796-.482-1.381-2.03-2.261-1.78-1.004-2.575-1.82-2.575-3.223v-.042c0-1.674,1.298-2.804,3.077-2.804,1.152,0,2.156.482,2.909,1.13l-.753,1.089c-.628-.585-1.34-.963-2.199-.963-1.004,0-1.674.627-1.674,1.443v.042c0,.795.523,1.318,2.008,2.176,1.948,1.13,2.596,1.988,2.596,3.348v.02c0,1.842-1.423,3.014-3.182,3.014-1.089,0-2.239-.439-3.328-1.443l.003.002Z"/><path d="M188.9.441v37.567h-1.476V.441h1.476Z"/></svg>