<?xml version="1.0" encoding="utf-8"?>
<!-- Generator: Adobe Illustrator 25.2.1, SVG Export Plug-In . SVG Version: 6.00 Build 0)  -->
<svg version="1.1" id="Layer_1" xmlns="http://www.w3.org/2000/svg" xmlns:xlink="http://www.w3.org/1999/xlink" x="0px" y="0px"
	 viewBox="0 0 237.3 54.8" style="enable-background:new 0 0 237.3 54.8;" xml:space="preserve">
<style type="text/css">
	.st0{enable-background:new    ;}
	.st1{fill:#000000;}
	.st2{fill:#FFC757;}
</style>
<g transform="translate(-730.221 -1217.308)">
	<g class="st0">
		<path class="st1" d="M799.2,1260.9h1.7c1.3,0,2.2,0.8,2.2,1.9c0,1.5-1.4,1.8-1.6,1.8l1.8,2.7h-0.9l-1.7-2.6H800v2.6h-0.8V1260.9z
			 M802.3,1262.8c0-0.7-0.5-1.2-1.3-1.2H800v2.3h0.9C801.8,1264,802.3,1263.5,802.3,1262.8z"/>
		<path class="st1" d="M808.1,1265.2c0,0.1,0,0.1,0,0.2h-3.4c0,0.6,0.7,1.2,1.5,1.2c0.8,0,1.3-0.6,1.3-0.6l0.5,0.5
			c0,0-0.6,0.8-1.8,0.8c-1.3,0-2.2-1-2.2-2.2c0-1.2,0.8-2.2,2.1-2.2C807.2,1263,808.1,1263.9,808.1,1265.2z M807.3,1264.9
			c0-0.5-0.5-1.2-1.3-1.2c-0.9,0-1.3,0.7-1.4,1.2H807.3z"/>
		<path class="st1" d="M809.2,1266.1c0,0,0.5,0.7,1.3,0.7c0.4,0,0.9-0.2,0.9-0.5c0-0.4-0.3-0.6-1-0.7c-0.9-0.2-1.6-0.5-1.6-1.3
			c0-0.6,0.6-1.2,1.6-1.2c1,0,1.6,0.6,1.6,0.6l-0.5,0.5c0,0-0.4-0.5-1.1-0.5c-0.5,0-0.8,0.3-0.8,0.5c0,0.3,0.3,0.5,1,0.6
			c0.8,0.2,1.5,0.5,1.5,1.3c0,0.8-0.9,1.2-1.7,1.2c-1.2,0-1.8-0.9-1.8-0.9L809.2,1266.1z"/>
		<path class="st1" d="M817,1265.2c0,0.1,0,0.1,0,0.2h-3.4c0,0.6,0.7,1.2,1.5,1.2c0.8,0,1.3-0.6,1.3-0.6l0.5,0.5
			c0,0-0.6,0.8-1.8,0.8c-1.3,0-2.2-1-2.2-2.2c0-1.2,0.8-2.2,2.1-2.2C816.2,1263,817,1263.9,817,1265.2z M816.3,1264.9
			c0-0.5-0.5-1.2-1.3-1.2c-0.9,0-1.3,0.7-1.4,1.2H816.3z"/>
		<path class="st1" d="M821.5,1264.6v2.8h-0.7v-0.6c0,0-0.5,0.7-1.4,0.7c-0.8,0-1.6-0.5-1.6-1.5c0-0.8,0.7-1.4,1.7-1.4
			c0.8,0,1.3,0.3,1.3,0.3v-0.2c0-0.9-0.7-1-1.1-1c-0.6,0-1.3,0.4-1.3,0.4l-0.3-0.6c0,0,0.7-0.4,1.6-0.4
			C820.9,1263,821.5,1263.8,821.5,1264.6z M820.7,1266.1v-0.6c0,0-0.4-0.3-1.1-0.3c-0.7,0-1.1,0.3-1.1,0.8c0,0.6,0.5,0.8,1,0.8
			C820.2,1266.8,820.7,1266.1,820.7,1266.1z"/>
		<path class="st1" d="M825.2,1263.1l-0.3,0.7c0,0-0.2-0.1-0.5-0.1c-0.7,0-1,0.7-1,0.7v2.9h-0.8v-4.3h0.7v0.7c0,0,0.4-0.8,1.2-0.8
			C824.9,1263,825.2,1263.1,825.2,1263.1z"/>
		<path class="st1" d="M829.2,1266.6c0,0-0.6,0.8-1.7,0.8c-1.3,0-2.2-1-2.2-2.2c0-1.2,0.9-2.2,2.2-2.2c1.1,0,1.7,0.8,1.7,0.8
			l-0.5,0.5c0,0-0.4-0.5-1.2-0.5c-0.9,0-1.4,0.7-1.4,1.5c0,0.8,0.6,1.5,1.4,1.5c0.8,0,1.2-0.6,1.2-0.6L829.2,1266.6z"/>
		<path class="st1" d="M833.8,1264.6v2.7H833v-2.6c0-0.7-0.5-1-1-1c-0.7,0-1.1,0.7-1.1,0.7v2.9h-0.8v-7h0.8v3.2
			c0.1-0.2,0.5-0.6,1.3-0.6C833,1263,833.8,1263.6,833.8,1264.6z"/>
		<path class="st1" d="M835.5,1261.2c0.3,0,0.5,0.2,0.5,0.5s-0.2,0.5-0.5,0.5s-0.5-0.2-0.5-0.5S835.2,1261.2,835.5,1261.2z
			 M835.1,1263.1h0.8v4.3h-0.8V1263.1z"/>
		<path class="st1" d="M840.8,1264.6v2.7H840v-2.6c0-0.7-0.5-1-1-1c-0.7,0-1.1,0.7-1.1,0.7v2.9h-0.8v-4.3h0.7v0.6
			c0,0,0.4-0.7,1.3-0.7C840.1,1263,840.8,1263.6,840.8,1264.6z"/>
		<path class="st1" d="M845.1,1266.8c-0.1,0.2-0.6,0.6-1.4,0.6c-1.1,0-2.1-1-2.1-2.2c0-1.3,0.9-2.2,2.1-2.2c1,0,1.4,0.7,1.4,0.7
			v-0.6h0.7v4.3c0,1.5-1,2.2-2.2,2.2c-1.2,0-1.9-0.8-1.9-0.8l0.5-0.6c0,0,0.5,0.7,1.4,0.7c0.9,0,1.5-0.5,1.5-1.5V1266.8z
			 M845.1,1264.4c0,0-0.4-0.7-1.3-0.7c-0.9,0-1.4,0.7-1.4,1.5c0,0.8,0.5,1.5,1.4,1.5c0.8,0,1.3-0.7,1.3-0.7V1264.4z"/>
		<path class="st1" d="M854.4,1262.3c0,0-0.6-0.8-1.8-0.8c-1.4,0-2.4,1.2-2.4,2.6s1,2.6,2.4,2.6c1.2,0,1.9-0.9,1.9-0.9l0.5,0.5
			c0,0-0.9,1.1-2.4,1.1c-1.9,0-3.2-1.5-3.2-3.3c0-1.9,1.3-3.3,3.2-3.3c1.5,0,2.3,1,2.3,1L854.4,1262.3z"/>
		<path class="st1" d="M861.9,1264.1c0,1.9-1.3,3.3-3.2,3.3s-3.2-1.5-3.2-3.3c0-1.9,1.3-3.3,3.2-3.3S861.9,1262.3,861.9,1264.1z
			 M861.1,1264.1c0-1.4-0.9-2.6-2.4-2.6s-2.4,1.2-2.4,2.6s0.9,2.6,2.4,2.6S861.1,1265.5,861.1,1264.1z"/>
		<path class="st1" d="M864.8,1267.5l-2.7-6.6h0.8l1.9,4.7l1.9-4.7h0.8L864.8,1267.5z"/>
		<path class="st1" d="M868.4,1260.9h0.8v6.4h-0.8V1260.9z"/>
		<path class="st1" d="M875.8,1264.1c0,1.9-1.2,3.2-3.2,3.2h-1.8v-6.4h1.8C874.6,1260.9,875.8,1262.3,875.8,1264.1z M875,1264.1
			c0-1.4-0.8-2.5-2.4-2.5h-1v5h1C874.2,1266.6,875,1265.5,875,1264.1z"/>
		<path class="st1" d="M879,1263.1h0.8v-1.3h0.8v1.3h1.3v0.7h-1.3v2.3c0,0.4,0.2,0.7,0.6,0.7c0.2,0,0.5-0.2,0.5-0.2l0.3,0.6
			c-0.4,0.2-0.6,0.3-0.9,0.3c-0.6,0-1.3-0.4-1.3-1.3v-2.3H879V1263.1z"/>
		<path class="st1" d="M886.9,1265.2c0,1.3-0.9,2.2-2.2,2.2c-1.3,0-2.2-1-2.2-2.2c0-1.3,0.9-2.2,2.2-2.2
			C885.9,1263,886.9,1264,886.9,1265.2z M886.1,1265.2c0-0.8-0.6-1.5-1.4-1.5c-0.9,0-1.4,0.7-1.4,1.5c0,0.8,0.6,1.5,1.4,1.5
			C885.5,1266.7,886.1,1266.1,886.1,1265.2z"/>
		<path class="st1" d="M891.3,1263.7h2.7v0.7h-2.7v2.2h3v0.7h-3.8v-6.4h3.7v0.7h-2.9V1263.7z"/>
		<path class="st1" d="M899,1264.6v2.7h-0.8v-2.6c0-0.7-0.5-1-1-1c-0.7,0-1.1,0.7-1.1,0.7v2.9h-0.8v-4.3h0.7v0.6
			c0,0,0.4-0.7,1.3-0.7C898.2,1263,899,1263.6,899,1264.6z"/>
		<path class="st1" d="M903.9,1264.6v2.7h-0.8v-2.6c0-0.7-0.5-1-1-1c-0.7,0-1.1,0.7-1.1,0.7v2.9h-0.8v-7h0.8v3.2
			c0.1-0.2,0.5-0.6,1.3-0.6C903.2,1263,903.9,1263.6,903.9,1264.6z"/>
		<path class="st1" d="M908.6,1264.6v2.8h-0.7v-0.6c0,0-0.5,0.7-1.4,0.7c-0.8,0-1.6-0.5-1.6-1.5c0-0.8,0.7-1.4,1.7-1.4
			c0.8,0,1.3,0.3,1.3,0.3v-0.2c0-0.9-0.7-1-1.1-1c-0.6,0-1.3,0.4-1.3,0.4l-0.3-0.6c0,0,0.7-0.4,1.6-0.4
			C908,1263,908.6,1263.8,908.6,1264.6z M907.9,1266.1v-0.6c0,0-0.4-0.3-1.1-0.3c-0.7,0-1.1,0.3-1.1,0.8c0,0.6,0.5,0.8,1,0.8
			C907.4,1266.8,907.9,1266.1,907.9,1266.1z"/>
		<path class="st1" d="M913.4,1264.6v2.7h-0.8v-2.6c0-0.7-0.5-1-1-1c-0.7,0-1.1,0.7-1.1,0.7v2.9h-0.8v-4.3h0.7v0.6
			c0,0,0.4-0.7,1.3-0.7C912.7,1263,913.4,1263.6,913.4,1264.6z"/>
		<path class="st1" d="M918.2,1266.6c0,0-0.6,0.8-1.7,0.8c-1.3,0-2.2-1-2.2-2.2c0-1.2,0.9-2.2,2.2-2.2c1.1,0,1.7,0.8,1.7,0.8
			l-0.5,0.5c0,0-0.4-0.5-1.2-0.5c-0.9,0-1.4,0.7-1.4,1.5c0,0.8,0.6,1.5,1.4,1.5c0.8,0,1.2-0.6,1.2-0.6L918.2,1266.6z"/>
		<path class="st1" d="M922.9,1265.2c0,0.1,0,0.1,0,0.2h-3.4c0,0.6,0.7,1.2,1.5,1.2c0.8,0,1.3-0.6,1.3-0.6l0.5,0.5
			c0,0-0.6,0.8-1.8,0.8c-1.3,0-2.2-1-2.2-2.2c0-1.2,0.8-2.2,2.1-2.2C922,1263,922.9,1263.9,922.9,1265.2z M922.1,1264.9
			c0-0.5-0.5-1.2-1.3-1.2c-0.9,0-1.3,0.7-1.4,1.2H922.1z"/>
		<path class="st1" d="M926.5,1260.9h1.7c1.3,0,2.2,0.8,2.2,1.9c0,1.5-1.4,1.8-1.6,1.8l1.8,2.7h-0.9l-1.7-2.6h-0.6v2.6h-0.8V1260.9z
			 M929.6,1262.8c0-0.7-0.5-1.2-1.3-1.2h-0.9v2.3h0.9C929.1,1264,929.6,1263.5,929.6,1262.8z"/>
		<path class="st1" d="M935.3,1265.2c0,0.1,0,0.1,0,0.2h-3.4c0,0.6,0.7,1.2,1.5,1.2c0.8,0,1.3-0.6,1.3-0.6l0.5,0.5
			c0,0-0.6,0.8-1.8,0.8c-1.3,0-2.2-1-2.2-2.2c0-1.2,0.8-2.2,2.1-2.2C934.5,1263,935.3,1263.9,935.3,1265.2z M934.6,1264.9
			c0-0.5-0.5-1.2-1.3-1.2c-0.9,0-1.3,0.7-1.4,1.2H934.6z"/>
		<path class="st1" d="M939.9,1266.6c0,0-0.6,0.8-1.7,0.8c-1.3,0-2.2-1-2.2-2.2c0-1.2,0.9-2.2,2.2-2.2c1.1,0,1.7,0.8,1.7,0.8
			l-0.5,0.5c0,0-0.4-0.5-1.2-0.5c-0.9,0-1.4,0.7-1.4,1.5c0,0.8,0.6,1.5,1.4,1.5c0.8,0,1.2-0.6,1.2-0.6L939.9,1266.6z"/>
		<path class="st1" d="M944.7,1265.2c0,1.3-0.9,2.2-2.2,2.2s-2.2-1-2.2-2.2c0-1.3,0.9-2.2,2.2-2.2S944.7,1264,944.7,1265.2z
			 M943.9,1265.2c0-0.8-0.6-1.5-1.4-1.5c-0.9,0-1.4,0.7-1.4,1.5c0,0.8,0.6,1.5,1.4,1.5C943.4,1266.7,943.9,1266.1,943.9,1265.2z"/>
		<path class="st1" d="M945.8,1263.1l1.3,2.9l1.3-2.9h0.8l-2.1,4.4l-2.1-4.4H945.8z"/>
		<path class="st1" d="M953.6,1265.2c0,0.1,0,0.1,0,0.2h-3.4c0,0.6,0.7,1.2,1.5,1.2c0.8,0,1.3-0.6,1.3-0.6l0.5,0.5
			c0,0-0.6,0.8-1.8,0.8c-1.3,0-2.2-1-2.2-2.2c0-1.2,0.8-2.2,2.1-2.2C952.7,1263,953.6,1263.9,953.6,1265.2z M952.8,1264.9
			c0-0.5-0.5-1.2-1.3-1.2c-0.9,0-1.3,0.7-1.4,1.2H952.8z"/>
		<path class="st1" d="M957,1263.1l-0.3,0.7c0,0-0.2-0.1-0.5-0.1c-0.7,0-1,0.7-1,0.7v2.9h-0.8v-4.3h0.7v0.7c0,0,0.4-0.8,1.2-0.8
			C956.7,1263,957,1263.1,957,1263.1z"/>
		<path class="st1" d="M957.6,1268.6c0,0,0.3,0.2,0.5,0.2c0.3,0,0.5-0.2,0.7-0.7l0.3-0.8l-2-4.3h0.9l1.5,3.4l1.3-3.4h0.8
			c0,0-2.1,5.4-2.2,5.6c-0.2,0.6-0.7,0.9-1.2,0.9c-0.5,0-0.9-0.3-0.9-0.3L957.6,1268.6z"/>
	</g>
	<g class="st0">
		<path class="st1" d="M799.2,1223.3h8.5c5.1,0,8.6,3.3,8.6,8.1c0,3.9-2.1,6.8-5.8,7.8l6.5,10.1h-5.2l-6.1-9.8h-2v9.8h-4.4V1223.3z
			 M811.8,1231.4c0-2.6-1.8-3.8-4.6-3.8h-3.5v7.7h3.5C810,1235.3,811.8,1234,811.8,1231.4z"/>
		<path class="st1" d="M826.2,1233.9h10.4v4.2h-10.4v7h11.5v4.2h-15.9v-25.9h15.7v4.2h-11.2V1233.9z"/>
	</g>
	<g class="st0">
		<path class="st2" d="M863.3,1242.4l3,2.9c0,0-3.4,4.4-10,4.4c-7.5,0-13.1-5.7-13.1-13.4c0-7.7,5.7-13.4,13.1-13.4
			c6.2,0,9.6,4.1,9.6,4.1l-3,2.9c0,0-2.3-2.8-6.6-2.8c-5.1,0-8.6,4.3-8.6,9.2c0,5,3.5,9.3,8.6,9.3
			C860.9,1245.5,863.3,1242.4,863.3,1242.4z"/>
		<path class="st2" d="M895.4,1236.3c0,7.7-5.6,13.4-13.1,13.4c-7.5,0-13.1-5.7-13.1-13.4c0-7.7,5.5-13.4,13.1-13.4
			C889.9,1222.9,895.4,1228.6,895.4,1236.3z M890.9,1236.3c0-5-3.4-9.2-8.6-9.2c-5.2,0-8.6,4.2-8.6,9.2c0,5,3.4,9.2,8.6,9.2
			C887.5,1245.5,890.9,1241.3,890.9,1236.3z"/>
		<path class="st2" d="M908.6,1250.1l-11.6-26.8h4.8l6.9,16.6l6.8-16.6h4.6L908.6,1250.1z"/>
	</g>
	<g class="st0">
		<path class="st1" d="M931,1233.9h10.4v4.2H931v7h11.5v4.2h-15.9v-25.9h15.7v4.2H931V1233.9z"/>
		<path class="st1" d="M947.7,1223.3h8.5c5.1,0,8.6,3.3,8.6,8.1c0,3.9-2.1,6.8-5.8,7.8l6.5,10.1h-5.2l-6.1-9.8h-2v9.8h-4.4V1223.3z
			 M960.3,1231.4c0-2.6-1.8-3.8-4.6-3.8h-3.5v7.7h3.5C958.5,1235.3,960.3,1234,960.3,1231.4z"/>
	</g>
	<g transform="translate(730.221 1217.308)">
		<path class="st2" d="M52.1,18.7l2.1,0.9c0.2,0.1,0.5,0,0.6-0.2c0-0.1,0-0.2,0-0.3l-2-4.9c-0.1-0.2-0.3-0.3-0.5-0.2
			c-0.1,0-0.2,0.1-0.2,0.2l-0.9,2.1c-0.1,0.2-0.2,0.4-0.4,0.5l-4.5,2.7c-0.3-0.7-0.6-1.4-1-2c-0.1,0-0.1,0-0.2,0
			c-4.2,0.9-11.1,2.7-12.5,6.1c-1.8,4.5,3.4,5.3,3.7,11.6c0.3,6-8,10.4-12,12.1c-0.1,0-0.2,0.1-0.3,0.1c0.7,0.1,1.4,0.2,2.1,0.3h0.3
			V48c0,0.6-0.1,1.1-0.2,1.7l0,0v0.1c-0.2,0.6-0.5,1.2-1,1.6l-0.5,0.4c-0.1,0.2,0,0.4,0.2,0.5H25h4.9c0.1,0,0.2-0.1,0.3-0.2
			c0.1-0.1,0.1-0.2,0-0.3l-0.5-0.4c-0.5-0.4-0.9-1-1.1-1.6c-0.1-0.6-0.2-1.2-0.3-1.8v-0.3h0.3c2.2-0.1,4.3-0.6,6.3-1.4l0,0l0,0
			l1.3,5.1c0.1,0.2,0,0.4,0,0.6l-0.9,2.1c-0.1,0.2,0,0.5,0.2,0.6c0.1,0,0.2,0,0.3,0l4.9-2c0.2-0.1,0.3-0.3,0.2-0.5
			c0-0.1-0.1-0.2-0.2-0.2l-2.1-0.9c-0.2-0.1-0.4-0.2-0.5-0.4l-2.7-4.5c2-0.8,3.8-2,5.4-3.4l0.2-0.2l0.2,0.2c0.4,0.5,0.7,0.9,1.1,1.4
			c0.3,0.6,0.5,1.2,0.4,1.9l-0.1,0.6c0,0.1,0.1,0.2,0.2,0.2c0.1,0,0.3,0,0.3-0.1l3.5-3.5c0.1-0.1,0.1-0.2,0.1-0.3s-0.1-0.2-0.2-0.2
			l-0.6,0.1c-0.7,0.1-1.3-0.1-1.9-0.4l0,0c-0.5-0.3-1-0.7-1.4-1.1l-0.2-0.2l0.2-0.2c1.4-1.6,2.6-3.4,3.5-5.4l4.5,2.7
			c0.2,0.1,0.3,0.3,0.4,0.5l0.9,2.1c0.1,0.2,0.3,0.3,0.6,0.2c0.1,0,0.2-0.1,0.2-0.2l2-4.8c0.1-0.2,0-0.5-0.2-0.6c-0.1,0-0.2,0-0.3,0
			L52,36.3c-0.2,0.1-0.4,0.1-0.6,0L46.2,35l0,0c0.8-2,1.3-4.1,1.4-6.2v-0.3h0.3c0.6,0,1.1,0.1,1.7,0.2l0,0h0.1
			c0.6,0.2,1.2,0.5,1.6,1l0.4,0.5c0.1,0.1,0.2,0.1,0.3,0s0.2-0.2,0.2-0.3V25c0-0.1-0.1-0.2-0.2-0.3c-0.1-0.1-0.2-0.1-0.3,0l-0.4,0.5
			c-0.4,0.5-1,0.9-1.6,1.1c-0.6,0.1-1.2,0.2-1.8,0.3h-0.3v-0.3C47.5,24.2,47,22,46.2,20l0,0l5.1-1.3C51.7,18.6,51.9,18.6,52.1,18.7z
			"/>
		<path class="st2" d="M28.4,20.7c3.8-4.2,11.5-4.7,15.7-4.6c0.1,0,0.1,0,0.2,0c-0.5-0.7-1-1.4-1.6-2.1l-0.2-0.2l0.2-0.2
			c0.5-0.4,0.9-0.7,1.5-1.1h0.1c0.5-0.3,1.2-0.4,1.8-0.4l0.6,0.1c0.1,0,0.2-0.1,0.2-0.2c0-0.1,0-0.3-0.1-0.3l-3.5-3.5
			C43.3,8,43.2,8,43.1,8c-0.1,0-0.2,0.1-0.2,0.2L43,8.8c0.1,0.7-0.1,1.3-0.4,1.9v0.1c-0.3,0.5-0.7,0.9-1.1,1.4l-0.2,0.2L41,12.2
			c-1.6-1.4-3.4-2.6-5.4-3.5l2.7-4.5c0.1-0.2,0.3-0.3,0.5-0.4l2.1-0.9c0.2-0.1,0.3-0.3,0.2-0.6c0-0.1-0.1-0.2-0.2-0.2l-4.9-2
			c-0.2-0.1-0.5,0-0.6,0.2c0,0.1,0,0.2,0,0.3l0.9,2.1c0.1,0.2,0.1,0.4,0,0.6L35,8.5c-2-0.8-4.1-1.3-6.2-1.4h-0.3V6.8
			c0-0.6,0.1-1.1,0.2-1.7l0,0V5c0.2-0.6,0.5-1.2,1-1.6L30.3,3c0.1-0.2,0-0.4-0.2-0.5H30h-4.9c-0.2,0-0.3,0.2-0.4,0.3
			c0,0.1,0,0.1,0,0.2l0.5,0.4c0.5,0.4,0.9,1,1.1,1.6c0.1,0.6,0.2,1.2,0.3,1.8v0.3h-0.3C24.1,7.2,22,7.6,20,8.4l0,0l0,0l-1.3-5.1
			c-0.1-0.2,0-0.4,0-0.6l0.9-2.1c0.1-0.2,0-0.5-0.2-0.6c-0.1,0-0.2,0-0.3,0l0,0l-4.9,2C14,2.1,13.9,2.4,14,2.6
			c0,0.1,0.1,0.2,0.2,0.2l2.1,0.9c0.2,0.1,0.4,0.2,0.5,0.4l2.7,4.5c-2,0.8-3.8,2-5.4,3.4l-0.2,0.2L13.5,12c-0.4-0.5-0.7-0.9-1.1-1.4
			v-0.1c-0.3-0.6-0.4-1.2-0.3-1.8L12.2,8c0-0.1-0.1-0.2-0.2-0.2c-0.1,0-0.3,0-0.3,0.1l-3.5,3.5c-0.1,0.1-0.1,0.4,0,0.5L8.3,12
			l0.6-0.1c0.7-0.1,1.3,0.1,1.9,0.4l0,0c0.5,0.3,1,0.7,1.4,1.1l0.2,0.2l-0.2,0.2c-1.4,1.6-2.6,3.4-3.5,5.4l0,0l-4.5-2.7
			C4,16.4,3.9,16.2,3.8,16l-0.9-2.1c-0.1-0.2-0.3-0.3-0.6-0.2c-0.1,0-0.2,0.1-0.2,0.2l-2,4.9c-0.1,0.2,0,0.5,0.2,0.6
			c0.1,0,0.2,0,0.3,0l2.1-0.9c0.2-0.1,0.4-0.1,0.6,0l5.1,1.3l0,0c-0.8,2-1.3,4.1-1.5,6.2v0.3H6.6c-0.6,0-1.1-0.1-1.7-0.2l0,0H4.8
			c-0.6-0.2-1.2-0.5-1.6-1L3,24.5c-0.1-0.1-0.2-0.1-0.3,0s-0.2,0.2-0.2,0.3v4.9c0,0.1,0.1,0.3,0.2,0.3c0.1,0.1,0.2,0.1,0.3,0
			l0.4-0.5c0.4-0.5,1-0.9,1.6-1.1c0.6-0.1,1.2-0.2,1.8-0.3h0.3v0.3c0.1,2.1,0.6,4.3,1.4,6.3l0,0L3.4,36c-0.2,0.1-0.4,0-0.6,0
			l-2.1-0.9c-0.2-0.1-0.5,0-0.6,0.2c0,0.1,0,0.2,0,0.3l2,4.9c0.1,0.2,0.3,0.3,0.6,0.2c0.1,0,0.2-0.1,0.2-0.2l0.9-2.1
			C3.9,38.2,4,38,4.2,37.9l4.5-2.7c0.7,1.6,1.6,3.1,2.6,4.5h0.2c5.7-1.2,14.9-3.3,17.1-5.3C31.7,31.7,23,26.7,28.4,20.7z"/>
	</g>
</g>
</svg>
